Input #0, mov,mp4,m4a,3gp,3g2,mj2, from '/home/hbattu/projects/huberman-gpt/huberman-audio/mp3/tmp67tjbe5d.mp4':
  Metadata:
    major_brand     : dash
    minor_version   : 0
    compatible_brands: iso6mp41
    creation_time   : 2023-01-08T01:53:03.000000Z
  Duration: 02:26:01.31, start: 0.000000, bitrate: 129 kb/s
    Stream #0:0(eng): Audio: aac (LC) (mp4a / 0x6134706D), 44100 Hz, stereo, fltp, 0 kb/s (default)
    Metadata:
      creation_time   : 2023-01-08T01:53:03.000000Z
      handler_name    : ISO Media file produced by Google Inc.
Stream mapping:
  Stream #0:0 -> #0:0 (aac (native) -> mp3 (libmp3lame))
Press [q] to stop, [?] for help
[graph_0_in_0_0 @ 0x55a7c261cb00] tb:1/44100 samplefmt:fltp samplerate:44100 chlayout:0x3
Output #0, mp3, to '../huberman-audio/mp3/wTBSGgbIvsY.mp3':
  Metadata:
    major_brand     : dash
    minor_version   : 0
    compatible_brands: iso6mp41
    TSSE            : Lavf58.29.100
    Stream #0:0(eng): Audio: mp3 (libmp3lame), 44100 Hz, stereo, fltp, delay 1105 (default)
    Metadata:
      creation_time   : 2023-01-08T01:53:03.000000Z
      handler_name    : ISO Media file produced by Google Inc.
      encoder         : Lavc58.54.100 libmp3lame
No more output streams to write to, finishing.
size=  136896kB time=02:26:01.31 bitrate= 128.0kbits/s speed=85.4x    
[AVIOContext @ 0x55a7c2509900] Statistics: 0 seeks, 206 writeouts
video:0kB audio:136896kB subtitle:0kB other streams:0kB global headers:0kB muxing overhead: 0.000247%
Input file #0 (/home/hbattu/projects/huberman-gpt/huberman-audio/mp3/tmp67tjbe5d.mp4):
  Input stream #0:0 (audio): 377318 packets read (140180909 bytes); 377318 frames decoded (386373632 samples); 
  Total: 377318 packets (140180909 bytes) demuxed
Output file #0 (../huberman-audio/mp3/wTBSGgbIvsY.mp3):
  Output stream #0:0 (audio): 335394 frames encoded (386373632 samples); 335395 packets muxed (140181420 bytes); 
  Total: 335395 packets (140181420 bytes) muxed
[AVIOContext @ 0x55a7c25319c0] Statistics: 2 seeks, 536 writeouts
[AVIOContext @ 0x55a7c2512880] Statistics: 141792693 bytes read, 0 seeks
